<?xml version="1.0" encoding="UTF-8"?>
<svg id="logo" xmlns="http://www.w3.org/2000/svg" viewBox="0 0 128.514 126.886">
  <defs>
    <style>
      .cls-1 {
        fill: #ff0056;
      }

      .cls-2 {
        fill: #fff;
      }

      .cls-3 {
        stroke-miterlimit: 1.174;
        stroke-width: 1.429px;
      }

      .cls-3, .cls-4 {
        stroke: #141e2f;
      }

      .cls-3, .cls-4, .cls-5 {
        fill: none;
      }

      .cls-6 {
        isolation: isolate;
      }

      .cls-4 {
        stroke-miterlimit: 1.399;
        stroke-width: 2.725px;
      }

      .cls-7 {
        fill: #141e2f;
      }

      .cls-5 {
        stroke: #fff;
        stroke-linejoin: bevel;
        stroke-width: 3.732px;
      }
    </style>
  </defs>
  <g class="cls-6">
    <g>
      <polygon class="cls-5" points="103.625 87.753 64.125 110.563 24.621 87.753 24.621 42.133 64.125 19.333 103.625 42.133 103.625 87.753"/>
      <polygon class="cls-4" points="106.882 89.633 64.125 114.313 21.363 89.633 21.363 40.253 64.125 15.573 106.882 40.253 106.882 89.633"/>
      <polygon class="cls-1" points="100.175 85.753 64.121 106.573 28.07 85.753 28.07 44.133 64.121 23.313 100.175 44.133 100.175 85.753"/>
      <path class="cls-2" d="M87.346,70.683l-9.789-2.52c-.586-.15-.953-.72-.867-1.32.027-.16.047-.33.063-.5.062-.59.542-1.04,1.136-1.06l7.453-.2c.325-.01.579-.28.571-.6s-.278-.58-.602-.57l-7.441.2c-.594.02-1.098-.41-1.188-1l-.004-.02c-.086-.57.25-1.11.793-1.29l7.387-2.4c.996-.32,2.059-.48,3.082-.27.332.07.688.06,1.035-.06,1.223-.39,1.817-1.84,1.113-3.01-.402-.68-1.191-1.06-1.964-.97-.461.06-.856.25-1.157.52-.808.74-1.707,1.38-2.746,1.72l-7.429,2.41c-.543.18-1.133-.06-1.399-.57-.008-.02-.019-.04-.027-.06-.281-.52-.125-1.18.367-1.51l6.215-4.27c.269-.18.336-.54.152-.81-.179-.27-.547-.33-.812-.15l-6.25,4.29c-.485.33-1.133.25-1.532-.18-.128-.14-.257-.28-.394-.42-.43-.43-.469-1.12-.078-1.58l6.465-7.72c.918-1.09,2.375-1.57,3.769-1.24,4.863,1.13,9.031,4.72,10.692,9.81,1.64,5.06.41,10.35-2.797,14.13-.934,1.1-2.414,1.58-3.817,1.22M82.463,90.383c-4.3,3.12-9.718,3.58-14.3,1.7-1.336-.55-2.246-1.81-2.336-3.25l-.633-10.09c-.035-.6.391-1.13.984-1.23.168-.03.332-.06.5-.09.578-.13,1.157.19,1.356.75l2.496,7.02c.109.31.445.47.746.36.305-.11.465-.44.355-.75l-2.492-7.01c-.195-.56.055-1.18.586-1.44.008-.01.012-.01.02-.01.511-.26,1.133-.11,1.472.36l4.563,6.28c.617.84,1.094,1.81,1.207,2.84.039.34.16.68.375.97.758,1.04,2.316,1.16,3.219.13.511-.59.632-1.46.308-2.17-.195-.42-.496-.73-.855-.94-.953-.54-1.836-1.2-2.477-2.08l-4.59-6.32c-.336-.46-.289-1.1.11-1.5.015-.02.031-.03.047-.05.414-.43,1.082-.48,1.554-.12l5.973,4.6c.258.19.625.15.82-.11.2-.26.149-.62-.105-.82l-6.008-4.62c-.465-.36-.59-1-.301-1.51.094-.17.184-.33.27-.51.277-.54.918-.79,1.488-.56l9.332,3.76c1.324.54,2.227,1.78,2.348,3.2.422,4.98-1.696,10.05-6.032,13.2M53.738,64.943c0-5.71,4.633-10.35,10.348-10.35s10.343,4.64,10.343,10.35-4.629,10.35-10.343,10.35-10.348-4.63-10.348-10.35M62.32,88.713c-.098,1.42-1,2.66-2.316,3.22-4.606,1.94-10.079,1.49-14.418-1.66-4.301-3.12-6.418-8.14-6.043-13.07.109-1.45,1.027-2.7,2.371-3.23l9.402-3.72c.559-.22,1.191.02,1.473.56.078.15.16.3.246.44.293.51.172,1.16-.297,1.52l-5.91,4.55c-.258.2-.305.56-.11.82.2.26.567.31.821.11l5.902-4.54c.469-.36,1.133-.31,1.547.11l.016.02c.402.4.453,1.04.117,1.5l-4.567,6.29c-.613.84-1.382,1.6-2.332,2.03-.312.14-.59.36-.804.65-.758,1.05-.387,2.56.875,3.1.718.31,1.582.15,2.152-.37.34-.32.547-.71.629-1.11.219-1.07.574-2.11,1.219-3l4.589-6.32c.336-.46.954-.61,1.465-.36.02.01.039.02.059.03.535.26.793.89.594,1.45l-2.524,7.1c-.109.3.051.64.356.74.3.11.636-.05.746-.35l2.535-7.14c.199-.56.773-.87,1.348-.76.183.04.371.08.558.11.606.09,1.039.63.996,1.24,0,0-.695,10.04-.695,10.04ZM37.168,69.393c-3.266-3.78-4.536-9.13-2.879-14.22,1.64-5.06,5.754-8.62,10.566-9.79,1.402-.34,2.879.14,3.801,1.25l6.441,7.8c.387.46.348,1.14-.074,1.57-.117.12-.23.24-.348.37-.394.44-1.046.53-1.535.19l-6.152-4.22c-.266-.18-.633-.11-.813.15-.183.27-.117.64.149.82l6.14,4.21c.489.33.649.98.375,1.5-.003.01-.007.02-.011.02-.262.51-.856.76-1.399.58l-7.386-2.4c-.993-.32-1.95-.82-2.653-1.59-.226-.25-.523-.45-.871-.57-1.223-.39-2.555.43-2.676,1.8-.066.77.344,1.55,1.024,1.93.402.23.836.3,1.242.25,1.09-.12,2.187-.11,3.23.23l7.426,2.42c.543.17.879.71.797,1.28-.004.02-.004.04-.008.07-.086.59-.593,1.02-1.191,1l-7.535-.2c-.321-.01-.59.24-.598.57-.012.32.246.59.566.6l7.579.21c.586.01,1.066.46,1.132,1.04.02.19.043.38.075.56.093.61-.278,1.19-.871,1.34l-9.766,2.44c-1.383.34-2.844-.13-3.777-1.21M51.545,40.713c2.586-4.28,7.278-7.14,12.641-7.14,5.313,0,9.969,2.81,12.57,7.02.758,1.23.754,2.79-.019,4.01l-5.422,8.53c-.324.52-.977.69-1.516.42-.152-.07-.308-.15-.461-.21-.543-.25-.824-.84-.656-1.41l2.11-7.15c.089-.31-.086-.64-.395-.73-.309-.09-.637.09-.726.4l-2.106,7.14c-.168.56-.734.91-1.32.82-.008,0-.016-.01-.02-.01-.566-.09-.98-.58-.98-1.15v-7.76c0-1.05.176-2.11.695-3.02.168-.29.262-.64.262-1,0-1.29-1.188-2.3-2.531-1.99-.758.17-1.364.8-1.516,1.57-.094.45-.031.88.137,1.26.453,1,.781,2.05.781,3.14v7.81c0,.57-.41,1.06-.973,1.16h-.066c-.59.11-1.16-.24-1.328-.82l-2.133-7.22c-.09-.31-.414-.49-.727-.4-.308.09-.484.42-.394.73l2.144,7.27c.168.56-.109,1.15-.644,1.4-.176.07-.344.16-.516.24-.543.28-1.207.1-1.531-.41l-5.34-8.54c-.758-1.21-.762-2.74-.02-3.96"/>
      <path class="cls-1" d="M70.421,64.943c0,3.5-2.836,6.34-6.336,6.34s-6.34-2.84-6.34-6.34,2.84-6.34,6.34-6.34,6.336,2.84,6.336,6.34"/>
      <polygon class="cls-5" points="103.625 87.753 64.125 110.563 24.621 87.753 24.621 42.133 64.125 19.333 103.625 42.133 103.625 87.753"/>
      <polygon class="cls-4" points="106.882 89.633 64.125 114.313 21.363 89.633 21.363 40.253 64.125 15.573 106.882 40.253 106.882 89.633"/>
      <polygon class="cls-3" points="100.175 85.753 64.121 106.573 28.07 85.753 28.07 44.133 64.121 23.313 100.175 44.133 100.175 85.753"/>
      <path class="cls-7" d="M64.121,107.503l-36.857-21.28v-42.56l36.857-21.28,36.859,21.28v42.56s-36.859,21.28-36.859,21.28ZM29.967,84.663l34.153,19.72,34.156-19.72v-39.44l-34.155-19.72-34.154,19.72v39.44Z"/>
    </g>
  </g>
</svg>