<?xml version="1.0" encoding="UTF-8"?>
<svg xmlns="http://www.w3.org/2000/svg" viewBox="0 0 295.514 101.886">
  <defs>
    <style>
      .cls-1 {
        fill: #ff0056;
      }

      .cls-2 {
        fill: #fff;
      }

      .cls-3 {
        stroke-miterlimit: 1.399;
        stroke-width: 2.725px;
      }

      .cls-3, .cls-4, .cls-5 {
        fill: none;
      }

      .cls-3, .cls-5 {
        stroke: #141e2f;
      }

      .cls-6 {
        isolation: isolate;
      }

      .cls-4 {
        stroke: #fff;
        stroke-linejoin: bevel;
        stroke-width: 3.732px;
      }

      .cls-7 {
        fill: #141e2f;
      }

      .cls-5 {
        stroke-miterlimit: 1.174;
        stroke-width: 1.429px;
      }
    </style>
  </defs>
  <g id="logo">
    <g class="cls-6">
      <g>
        <polygon class="cls-4" points="83.625 73.753 44.125 96.563 4.621 73.753 4.621 28.133 44.125 5.333 83.625 28.133 83.625 73.753"/>
        <polygon class="cls-3" points="86.882 75.633 44.125 100.313 1.363 75.633 1.363 26.253 44.125 1.573 86.882 26.253 86.882 75.633"/>
        <polygon class="cls-1" points="80.175 71.753 44.121 92.573 8.07 71.753 8.07 30.133 44.121 9.313 80.175 30.133 80.175 71.753"/>
        <path class="cls-2" d="M67.346,56.683l-9.789-2.52c-.586-.15-.953-.72-.867-1.32.027-.16.047-.33.063-.5.062-.59.542-1.04,1.136-1.06l7.453-.2c.325-.01.579-.28.571-.6-.008-.32-.278-.58-.602-.57l-7.441.2c-.594.02-1.098-.41-1.188-1l-.004-.02c-.086-.57.25-1.11.793-1.29l7.387-2.4c.996-.32,2.059-.48,3.082-.27.332.07.688.06,1.035-.06,1.223-.39,1.817-1.84,1.113-3.01-.402-.68-1.191-1.06-1.964-.97-.461.06-.856.25-1.157.52-.808.74-1.707,1.38-2.746,1.72l-7.429,2.41c-.543.18-1.133-.06-1.399-.57-.008-.02-.019-.04-.027-.06-.281-.52-.125-1.18.367-1.51l6.215-4.27c.269-.18.336-.54.152-.81-.179-.27-.547-.33-.812-.15l-6.25,4.29c-.485.33-1.133.25-1.532-.18-.128-.14-.257-.28-.394-.42-.43-.43-.469-1.12-.078-1.58l6.465-7.72c.918-1.09,2.375-1.57,3.769-1.24,4.863,1.13,9.031,4.72,10.692,9.81,1.64,5.06.41,10.35-2.797,14.13-.934,1.1-2.414,1.58-3.817,1.22M62.463,76.383c-4.3,3.12-9.718,3.58-14.3,1.7-1.336-.55-2.246-1.81-2.336-3.25l-.633-10.09c-.035-.6.391-1.13.984-1.23.168-.03.332-.06.5-.09.578-.13,1.157.19,1.356.75l2.496,7.02c.109.31.445.47.746.36.305-.11.465-.44.355-.75l-2.492-7.01c-.195-.56.055-1.18.586-1.44.008-.01.012-.01.02-.01.511-.26,1.133-.11,1.472.36l4.563,6.28c.617.84,1.094,1.81,1.207,2.84.039.34.16.68.375.97.758,1.04,2.316,1.16,3.219.13.511-.59.632-1.46.308-2.17-.195-.42-.496-.73-.855-.94-.953-.54-1.836-1.2-2.477-2.08l-4.59-6.32c-.336-.46-.289-1.1.11-1.5.015-.02.031-.03.047-.05.414-.43,1.082-.48,1.554-.12l5.973,4.6c.258.19.625.15.82-.11.2-.26.149-.62-.105-.82l-6.008-4.62c-.465-.36-.59-1-.301-1.51.094-.17.184-.33.27-.51.277-.54.918-.79,1.488-.56l9.332,3.76c1.324.54,2.227,1.78,2.348,3.2.422,4.98-1.696,10.05-6.032,13.2M33.738,50.943c0-5.71,4.633-10.35,10.348-10.35s10.343,4.64,10.343,10.35-4.629,10.35-10.343,10.35-10.348-4.63-10.348-10.35M42.32,74.713c-.098,1.42-1,2.66-2.316,3.22-4.606,1.94-10.079,1.49-14.418-1.66-4.301-3.12-6.418-8.14-6.043-13.07.109-1.45,1.027-2.7,2.371-3.23l9.402-3.72c.559-.22,1.191.02,1.473.56.078.15.16.3.246.44.293.51.172,1.16-.297,1.52l-5.91,4.55c-.258.2-.305.56-.11.82.2.26.567.31.821.11l5.902-4.54c.469-.36,1.133-.31,1.547.11l.016.02c.402.4.453,1.04.117,1.5l-4.567,6.29c-.613.84-1.382,1.6-2.332,2.03-.312.14-.59.36-.804.65-.758,1.05-.387,2.56.875,3.1.718.31,1.582.15,2.152-.37.34-.32.547-.71.629-1.11.219-1.07.574-2.11,1.219-3l4.589-6.32c.336-.46.954-.61,1.465-.36.02.01.039.02.059.03.535.26.793.89.594,1.45l-2.524,7.1c-.109.3.051.64.356.74.3.11.636-.05.746-.35l2.535-7.14c.199-.56.773-.87,1.348-.76.183.04.371.08.558.11.606.09,1.039.63.996,1.24l-.695,10.04ZM17.168,55.393c-3.266-3.78-4.536-9.13-2.879-14.22,1.64-5.06,5.754-8.62,10.566-9.79,1.402-.34,2.879.14,3.801,1.25l6.441,7.8c.387.46.348,1.14-.074,1.57-.117.12-.23.24-.348.37-.394.44-1.046.53-1.535.19l-6.152-4.22c-.266-.18-.633-.11-.813.15-.183.27-.117.64.149.82l6.14,4.21c.489.33.649.98.375,1.5-.003.01-.007.02-.011.02-.262.51-.856.76-1.399.58l-7.386-2.4c-.993-.32-1.95-.82-2.653-1.59-.226-.25-.523-.45-.871-.57-1.223-.39-2.555.43-2.676,1.8-.066.77.344,1.55,1.024,1.93.402.23.836.3,1.242.25,1.09-.12,2.187-.11,3.23.23l7.426,2.42c.543.17.879.71.797,1.28-.004.02-.004.04-.008.07-.086.59-.593,1.02-1.191,1l-7.535-.2c-.321-.01-.59.24-.598.57-.012.32.246.59.566.6l7.579.21c.586.01,1.066.46,1.132,1.04.02.19.043.38.075.56.093.61-.278,1.19-.871,1.34l-9.766,2.44c-1.383.34-2.844-.13-3.777-1.21M31.545,26.713c2.586-4.28,7.278-7.14,12.641-7.14,5.313,0,9.969,2.81,12.57,7.02.758,1.23.754,2.79-.019,4.01l-5.422,8.53c-.324.52-.977.69-1.516.42-.152-.07-.308-.15-.461-.21-.543-.25-.824-.84-.656-1.41l2.11-7.15c.089-.31-.086-.64-.395-.73-.309-.09-.637.09-.726.4l-2.106,7.14c-.168.56-.734.91-1.32.82-.008,0-.016-.01-.02-.01-.566-.09-.98-.58-.98-1.15v-7.76c0-1.05.176-2.11.695-3.02.168-.29.262-.64.262-1,0-1.29-1.188-2.3-2.531-1.99-.758.17-1.364.8-1.516,1.57-.094.45-.031.88.137,1.26.453,1,.781,2.05.781,3.14v7.81c0,.57-.41,1.06-.973,1.16h-.066c-.59.11-1.16-.24-1.328-.82l-2.133-7.22c-.09-.31-.414-.49-.727-.4-.308.09-.484.42-.394.73l2.144,7.27c.168.56-.109,1.15-.644,1.4-.176.07-.344.16-.516.24-.543.28-1.207.1-1.531-.41l-5.34-8.54c-.758-1.21-.762-2.74-.02-3.96"/>
        <path class="cls-1" d="M50.421,50.943c0,3.5-2.836,6.34-6.336,6.34s-6.34-2.84-6.34-6.34,2.84-6.34,6.34-6.34,6.336,2.84,6.336,6.34"/>
        <polygon class="cls-4" points="83.625 73.753 44.125 96.563 4.621 73.753 4.621 28.133 44.125 5.333 83.625 28.133 83.625 73.753"/>
        <polygon class="cls-3" points="86.882 75.633 44.125 100.313 1.363 75.633 1.363 26.253 44.125 1.573 86.882 26.253 86.882 75.633"/>
        <polygon class="cls-5" points="80.175 71.753 44.121 92.573 8.07 71.753 8.07 30.133 44.121 9.313 80.175 30.133 80.175 71.753"/>
        <path class="cls-7" d="M44.121,93.503L7.264,72.223V29.663L44.121,8.383l36.859,21.28v42.56l-36.859,21.28ZM9.967,70.663l34.153,19.72,34.156-19.72V31.223L44.121,11.503,9.967,31.223v39.44Z"/>
      </g>
    </g>
  </g>
  <g id="words">
    <path class="cls-7" d="M295.514,46.753h-4.703v-23.543h4.703v23.543ZM286.743,46.753h-4.696v-23.543h4.696v23.543ZM274.993,46.753h-4.738v-23.543h4.738v23.543ZM283.304,36.663h-9.648v-3.926h9.648v3.926ZM262.593,38.913h4.71c-.07,1.77-.42,3.26-1.07,4.47-.64,1.21-1.57,2.13-2.76,2.75-1.18.63-2.62.94-4.3.94-1.3,0-2.47-.21-3.49-.65-1.01-.43-1.87-1.08-2.59-1.93-.7-.85-1.24-1.91-1.61-3.16-.36-1.26-.54-2.7-.54-4.33v-4.03c0-1.63.2-3.07.58-4.34.39-1.27.94-2.33,1.65-3.17.72-.85,1.58-1.5,2.61-1.93,1.02-.44,2.17-.66,3.45-.66,1.72,0,3.15.32,4.3.95,1.15.65,2.05,1.59,2.68,2.83.63,1.24,1.01,2.75,1.14,4.53h-4.74c-.01-1.12-.14-2-.36-2.64-.22-.64-.57-1.1-1.05-1.36-.47-.25-1.13-.39-1.97-.39-.63,0-1.17.12-1.63.34-.45.21-.81.56-1.1,1.05-.3.48-.51,1.11-.64,1.89-.14.79-.2,1.74-.2,2.87v4.06c0,1.11.06,2.06.17,2.83.12.78.31,1.42.57,1.91.26.5.61.85,1.05,1.08.45.23,1.02.35,1.72.35.79,0,1.44-.12,1.93-.36s.86-.66,1.09-1.28c.23-.61.37-1.49.4-2.62ZM247.343,46.753h-4.703v-23.543h4.703v23.543ZM238.404,46.753h-4.703v-23.543h4.703v23.543ZM225.873,46.753l-4.32-10.49,4.97-.02,4.41,10.28v.23h-5.06ZM215.184,23.213h7.55c1.58,0,2.92.27,4.03.81,1.11.54,1.96,1.33,2.55,2.39.59,1.06.89,2.36.89,3.91,0,1.27-.17,2.36-.52,3.27-.34.9-.83,1.65-1.47,2.25-.63.59-1.39,1.07-2.27,1.42l-1.45.86h-6.12l-.01-3.94h4.25c.65,0,1.18-.14,1.61-.42.43-.29.74-.69.95-1.21.21-.53.32-1.14.32-1.84,0-.74-.1-1.39-.29-1.92-.19-.53-.49-.94-.89-1.22-.4-.28-.93-.42-1.57-.42h-2.81v19.6h-4.74l-.01-23.54ZM193.574,46.753h-4.738v-23.543h4.738v23.543ZM194.974,46.753h-4.15l.02-3.93h4.12c1.15,0,2.05-.19,2.69-.6.64-.4,1.08-1.05,1.35-1.93.25-.89.38-2.05.38-3.48v-3.68c0-1.09-.07-2.01-.21-2.76-.14-.76-.38-1.38-.71-1.85-.34-.47-.79-.82-1.34-1.04-.54-.22-1.24-.33-2.08-.33h-4.31v-3.94h4.31c1.35,0,2.59.22,3.69.66,1.11.44,2.07,1.09,2.87,1.93.8.85,1.41,1.89,1.84,3.13.43,1.24.65,2.65.65,4.24v3.64c0,1.58-.22,2.99-.65,4.22-.43,1.24-1.04,2.28-1.83,3.13-.79.84-1.75,1.49-2.88,1.93-1.12.44-2.37.66-3.77.66h.01ZM177.724,46.753h-4.738v-23.543h4.738v23.543ZM186.053,46.753h-9.785v-3.926h9.785v3.926ZM165.375,46.753l-4.317-10.49,4.965-.02,4.406,10.28v.23h-5.054ZM154.687,23.213h7.547c1.574,0,2.918.27,4.031.81,1.11.54,1.957,1.33,2.543,2.39.594,1.06.891,2.36.891,3.91,0,1.27-.168,2.36-.512,3.27-.344.9-.836,1.65-1.473,2.25-.632.59-1.39,1.07-2.273,1.42l-1.449.86h-6.121l-.016-3.94h4.258c.644,0,1.183-.14,1.609-.42.426-.29.742-.69.95-1.21.21-.53.32-1.14.32-1.84,0-.74-.098-1.39-.285-1.92-.192-.53-.489-.94-.891-1.22-.406-.28-.934-.42-1.578-.42h-2.809v19.6h-4.738l-.004-23.54ZM146.51,37.083v-3.95c0-1.13-.078-2.08-.238-2.88-.16-.8-.406-1.44-.73-1.95-.321-.51-.715-.88-1.176-1.12-.465-.23-1.004-.35-1.621-.35s-1.164.12-1.633.35c-.465.24-.856.61-1.176,1.12-.32.51-.562,1.15-.719,1.95-.156.8-.23,1.75-.23,2.88v3.95c0,1.09.082,2.01.238,2.78.168.77.414,1.39.735,1.87.324.48.718.84,1.183,1.07.473.23,1.02.35,1.633.35.602,0,1.137-.12,1.602-.35.468-.23.859-.59,1.175-1.07.321-.48.559-1.1.719-1.87.16-.77.238-1.69.238-2.78ZM151.213,33.173v3.91c0,1.66-.203,3.12-.605,4.37-.402,1.25-.977,2.29-1.711,3.12-.738.83-1.629,1.46-2.672,1.87-1.035.42-2.187.63-3.449.63s-2.418-.21-3.457-.63c-1.039-.41-1.93-1.04-2.684-1.87-.75-.83-1.324-1.87-1.734-3.12-.414-1.25-.617-2.71-.617-4.37v-3.91c0-1.72.195-3.21.594-4.49.402-1.28.98-2.34,1.734-3.2.754-.86,1.648-1.51,2.683-1.94,1.032-.44,2.184-.66,3.45-.66s2.41.22,3.445.66c1.035.43,1.93,1.08,2.684,1.94.754.86,1.332,1.92,1.734,3.2.402,1.28.605,2.77.605,4.49ZM122.346,23.213l3.801,20.13-.305,3.41h-2.695l-4.031-20.47.754-3.07h2.476ZM124.389,43.193l3.016-19.98h4.656l-4.176,23.54h-3.004l-.492-3.56ZM113.363,23.213l3.035,20.06-.512,3.48h-2.98l-4.227-23.54h4.684ZM114.651,43.253l3.77-20.04h2.488l.742,3.1-4.043,20.44h-2.695l-.262-3.5Z"/>
    <path class="cls-7" d="M199.394,59.893h-9.637v-1.527h9.637v1.527ZM198.254,69.203h-8.496v-1.527h8.496v1.527ZM190.204,79.143h-1.633v-20.777h1.633v20.777ZM199.463,79.143h-9.707v-1.527h9.707v1.527ZM182.354,58.363h1.63v14.64c0,1.56-.28,2.81-.85,3.75-.55.95-1.3,1.64-2.23,2.06-.94.42-1.98.63-3.11.63-1.16,0-2.2-.21-3.14-.63-.93-.42-1.666-1.11-2.213-2.06-.543-.94-.812-2.19-.812-3.75v-14.64h1.635v14.64c0,1.22.19,2.18.58,2.9.39.72.93,1.23,1.61,1.54.69.31,1.46.47,2.34.47.9,0,1.69-.16,2.37-.47s1.21-.82,1.61-1.54c.38-.72.58-1.68.58-2.9v-14.64ZM167.203,69.253v7.48c-.215.28-.559.63-1.039,1.05-.481.43-1.129.81-1.953,1.16-.821.33-1.856.5-3.094.5-1.035,0-1.977-.18-2.821-.54-.843-.36-1.574-.9-2.191-1.59-.617-.7-1.094-1.57-1.426-2.61-.328-1.04-.492-2.25-.492-3.64v-4.77c0-1.36.149-2.54.445-3.55.301-1.02.743-1.88,1.313-2.57.578-.7,1.277-1.22,2.101-1.57.829-.35,1.774-.52,2.833-.52,1.3,0,2.402.24,3.308.72.906.48,1.613,1.17,2.125,2.09.508.91.805,2.02.891,3.32h-1.645c-.09-.96-.312-1.78-.664-2.47-.348-.68-.851-1.21-1.504-1.57-.648-.38-1.484-.56-2.511-.56-.848,0-1.586.14-2.215.43-.625.28-1.153.71-1.578,1.27-.418.55-.735,1.25-.946,2.08-.207.83-.308,1.78-.308,2.86v4.81c0,1.12.117,2.12.355,2.97.242.85.594,1.57,1.059,2.14.465.57,1.019,1.01,1.668,1.3.644.3,1.382.44,2.203.44.875,0,1.613-.11,2.215-.32.601-.22,1.086-.47,1.449-.74.367-.28.629-.51.789-.68v-5.41h-4.566v-1.51h6.199ZM148.808,73.333h-9.363v-1.528h9.363v1.528ZM149.741,79.143l-5.992-19.52-.071-1.26h1.145l6.609,20.78h-1.691ZM144.366,59.623l-5.985,19.52h-1.679l6.601-20.78h1.164l-.101,1.26ZM134.788,59.893h-9.637v-1.527h9.637v1.527ZM133.647,69.203h-8.496v-1.527h8.496v1.527ZM125.596,79.143h-1.633v-20.777h1.633v20.777ZM134.858,79.143h-9.707v-1.527h9.707v1.527ZM112.05,79.143h-1.644v-20.777h1.644v20.777ZM120.6,79.143h-8.996v-1.527h8.996v1.527Z"/>
  </g>
</svg>